<svg id="svg" version="1.1" width="400" height="337.00787401574803" viewBox="0 0 400 337.00787401574803" xmlns="http://www.w3.org/2000/svg" xmlns:xlink="http://www.w3.org/1999/xlink" ><g id="svgg"><path id="path0" d="M107.715 155.132 C 106.285 155.722,106.239 156.510,106.239 180.639 C 106.239 205.115,106.489 209.561,108.147 214.671 C 111.871 226.151,123.209 232.715,139.314 232.715 C 146.377 232.715,146.135 233.134,145.978 221.172 C 145.848 211.313,145.990 211.673,141.941 210.907 C 138.437 210.245,136.713 209.319,135.539 207.467 C 133.737 204.625,133.773 205.138,133.575 179.860 C 133.402 157.724,133.350 156.139,132.788 155.577 C 132.119 154.908,109.241 154.502,107.715 155.132 M177.894 155.634 L 177.066 156.462 177.066 193.761 L 177.066 231.059 177.894 231.887 L 178.721 232.715 190.522 232.715 L 202.323 232.715 203.270 231.901 L 204.216 231.088 204.304 218.326 C 204.413 202.725,204.418 202.703,208.128 202.699 C 211.901 202.695,212.142 202.121,212.142 193.120 C 212.142 183.660,212.043 183.422,207.970 183.031 C 206.784 182.917,206.083 182.627,205.441 181.986 L 204.553 181.099 204.384 168.766 L 204.216 156.433 203.270 155.620 L 202.323 154.806 190.522 154.806 L 178.721 154.806 177.894 155.634 M219.040 155.634 L 218.212 156.462 218.212 193.761 L 218.212 231.059 219.040 231.887 L 219.868 232.715 231.503 232.715 C 244.397 232.715,244.646 232.679,245.213 230.720 C 245.448 229.908,245.530 217.506,245.463 192.972 L 245.363 156.434 244.416 155.620 L 243.470 154.806 231.669 154.806 L 219.868 154.806 219.040 155.634 M275.987 155.191 C 275.580 155.398,275.087 156.026,274.891 156.586 C 274.376 158.065,274.399 229.521,274.915 231.002 C 275.488 232.647,276.029 232.715,288.570 232.715 L 300.199 232.715 301.027 231.887 L 301.855 231.059 301.855 205.232 C 301.855 176.780,301.793 177.638,303.917 176.540 C 305.768 175.583,318.753 176.015,323.205 177.181 C 332.424 179.597,337.097 184.380,337.521 191.833 C 338.209 203.907,330.438 210.070,313.232 211.098 C 307.671 211.430,308.116 210.527,307.995 221.729 L 307.896 230.956 308.727 231.920 L 309.559 232.884 317.090 232.852 C 348.808 232.717,369.178 212.943,364.952 186.390 C 362.474 170.821,348.514 159.530,327.319 155.951 L 321.922 155.040 299.325 154.927 C 283.144 154.846,276.518 154.921,275.987 155.191 " stroke="none" fill="#ec1c24" fill-rule="evenodd"></path><path id="path1" d="M219.393 16.203 C 206.452 17.236,189.349 21.446,174.813 27.176 C 139.912 40.934,108.520 71.976,99.139 102.007 C 98.469 104.152,97.194 106.876,95.408 109.978 C 94.221 112.040,93.643 113.483,93.400 114.990 C 93.213 116.155,92.705 117.811,92.273 118.672 C 91.840 119.532,91.234 121.111,90.926 122.181 C 90.618 123.251,89.772 125.045,89.046 126.168 C 87.495 128.568,87.181 129.444,86.578 133.048 C 85.827 137.542,86.223 138.058,90.443 138.091 C 94.023 138.119,95.200 136.967,96.616 132.051 C 96.934 130.943,97.479 129.482,97.825 128.803 C 98.171 128.124,98.610 126.602,98.800 125.420 C 98.990 124.238,99.816 121.298,100.635 118.887 C 101.455 116.476,102.609 112.985,103.199 111.130 C 103.790 109.275,104.923 106.619,105.717 105.228 C 106.511 103.836,108.140 100.649,109.337 98.145 C 110.595 95.514,112.115 92.901,112.937 91.954 C 113.720 91.053,114.800 89.446,115.336 88.383 C 115.873 87.319,117.031 85.400,117.910 84.118 C 119.855 81.280,122.091 75.726,122.091 73.734 C 122.091 71.574,122.678 70.998,124.786 71.090 C 127.853 71.224,130.425 69.110,133.912 63.589 C 134.652 62.417,135.906 61.022,136.791 60.387 C 137.770 59.684,139.026 58.234,140.136 56.528 C 141.736 54.065,143.026 52.609,144.784 51.280 C 145.115 51.030,146.570 50.721,148.016 50.594 C 151.129 50.320,154.707 48.520,157.633 45.754 C 160.956 42.614,162.032 41.809,163.389 41.449 C 164.140 41.249,165.767 40.644,167.004 40.104 C 170.430 38.610,171.461 38.734,172.490 40.766 C 174.768 45.260,181.422 47.229,191.062 46.259 C 193.103 46.054,197.428 45.728,200.675 45.535 C 203.921 45.342,207.209 45.036,207.982 44.856 C 208.756 44.676,210.804 44.307,212.536 44.036 C 226.331 41.876,240.265 37.246,243.989 33.585 C 246.397 31.217,246.835 30.055,246.099 27.983 C 244.861 24.498,244.970 24.451,253.206 24.893 C 259.598 25.236,260.001 25.300,263.238 26.482 C 265.093 27.160,267.901 28.000,269.477 28.350 C 271.054 28.700,274.772 29.830,277.740 30.862 C 280.708 31.894,284.310 33.039,285.744 33.407 C 298.664 36.719,321.588 48.889,330.566 57.202 C 333.741 60.142,336.175 61.902,338.175 62.703 C 338.767 62.940,340.157 64.153,341.263 65.398 C 342.369 66.642,344.965 69.388,347.032 71.499 C 349.683 74.206,351.247 76.137,352.344 78.056 C 357.420 86.932,359.457 90.615,361.105 93.890 C 362.120 95.908,364.845 100.962,367.161 105.119 C 370.706 111.484,371.444 113.061,371.836 115.108 C 372.092 116.444,372.752 118.600,373.302 119.899 C 374.658 123.097,375.901 127.307,376.689 131.366 C 377.708 136.611,378.407 137.943,380.146 137.943 C 381.339 137.943,382.272 136.654,382.037 135.329 C 381.947 134.819,381.623 132.884,381.318 131.029 C 379.555 120.294,375.404 106.190,372.187 100.000 C 358.613 73.885,337.784 50.539,316.737 37.851 C 311.120 34.465,303.603 30.858,301.163 30.378 C 299.984 30.146,297.971 29.428,296.691 28.783 C 291.774 26.307,276.753 21.493,271.164 20.601 C 269.073 20.268,265.860 19.893,259.208 19.208 C 257.547 19.037,254.284 18.346,251.956 17.673 C 246.024 15.959,230.965 15.279,219.393 16.203 M247.513 19.915 C 248.543 20.277,249.619 20.580,249.904 20.589 C 250.189 20.597,250.877 20.826,251.433 21.097 L 252.445 21.589 251.096 21.426 C 250.354 21.336,249.084 21.124,248.273 20.955 C 245.666 20.414,239.936 21.067,238.405 22.080 C 235.881 23.750,236.974 27.178,240.225 27.788 C 242.068 28.133,243.078 29.424,242.362 30.517 C 241.100 32.444,239.042 33.525,232.715 35.587 C 230.582 36.283,227.926 37.229,226.813 37.691 C 225.700 38.152,223.046 38.815,220.916 39.163 C 218.786 39.511,216.282 40.010,215.352 40.273 C 214.421 40.536,212.549 40.856,211.191 40.985 C 209.834 41.114,207.937 41.442,206.976 41.714 C 205.958 42.002,202.197 42.360,197.976 42.571 C 178.718 43.534,176.391 43.071,176.391 38.274 C 176.391 34.025,173.458 33.498,166.833 36.558 C 165.445 37.199,163.575 37.831,162.677 37.961 C 160.334 38.302,159.696 38.721,156.450 42.046 C 152.558 46.033,146.712 48.861,146.712 46.756 C 146.712 46.202,155.498 40.274,158.416 38.861 C 159.555 38.309,160.916 37.554,161.441 37.183 C 167.265 33.064,189.666 24.722,200.843 22.509 C 201.771 22.326,203.723 21.885,205.181 21.531 C 206.640 21.176,209.372 20.740,211.252 20.562 C 213.133 20.384,215.202 20.065,215.852 19.853 C 219.333 18.718,244.245 18.766,247.513 19.915 M215.200 23.316 C 214.532 24.413,214.590 25.054,215.449 26.054 C 216.521 27.302,218.212 26.383,218.212 24.551 C 218.212 22.314,216.288 21.525,215.200 23.316 M274.368 24.611 C 283.871 27.231,292.192 30.122,294.604 31.640 C 296.964 33.126,295.792 33.059,290.427 31.398 C 288.087 30.674,284.730 29.654,282.968 29.132 C 281.206 28.610,278.373 27.624,276.673 26.942 C 274.974 26.260,272.925 25.600,272.120 25.476 C 269.680 25.098,267.116 24.287,267.116 23.891 C 267.116 23.330,271.186 23.734,274.368 24.611 M307.070 36.364 C 313.026 39.342,316.712 41.570,322.145 45.476 C 325.875 48.157,327.857 50.135,325.248 48.572 C 323.923 47.777,320.336 45.737,312.479 41.310 C 310.067 39.951,306.349 37.998,304.216 36.972 C 302.083 35.945,299.882 34.709,299.325 34.226 L 298.314 33.348 299.988 33.504 C 301.204 33.617,303.142 34.400,307.070 36.364 M10.542 52.961 C 10.126 53.128,9.481 53.764,9.110 54.373 C 8.192 55.878,8.020 320.317,8.936 322.087 C 10.456 325.027,15.619 324.982,18.479 322.005 C 20.327 320.082,20.259 325.551,20.160 187.503 L 20.067 58.481 18.895 56.170 C 17.216 52.862,13.929 51.599,10.542 52.961 M136.454 55.894 C 136.344 56.242,135.634 56.899,134.878 57.353 C 133.030 58.462,132.008 59.565,131.164 61.360 C 130.518 62.735,129.139 64.598,127.250 66.647 C 126.491 67.471,125.000 67.731,124.615 67.107 C 124.298 66.594,127.438 63.128,132.158 58.778 C 136.230 55.026,136.865 54.600,136.454 55.894 M15.469 56.511 C 17.330 58.877,17.211 49.277,17.118 189.782 L 17.032 319.011 16.041 320.045 C 15.052 321.078,13.410 321.415,12.001 320.875 C 11.281 320.598,11.169 56.163,11.889 55.873 C 13.127 55.373,14.810 55.673,15.469 56.511 M117.476 77.141 C 116.874 79.445,116.216 80.817,115.166 81.956 C 114.739 82.420,113.849 83.938,113.189 85.329 C 112.529 86.720,111.377 88.524,110.629 89.338 C 109.795 90.245,108.153 93.051,106.386 96.589 C 102.503 104.365,101.031 105.489,103.907 98.482 C 104.478 97.091,105.381 94.767,105.914 93.318 C 107.286 89.585,109.466 85.735,112.840 81.087 C 117.451 74.736,118.291 74.020,117.476 77.141 M99.442 111.383 C 99.033 113.229,97.207 118.963,96.763 119.791 C 96.576 120.142,96.219 121.687,95.970 123.226 C 95.720 124.764,95.143 126.770,94.687 127.683 C 94.231 128.595,93.534 130.423,93.138 131.743 C 92.350 134.373,91.837 135.016,90.659 134.849 C 89.017 134.616,89.868 130.659,92.254 127.433 C 93.030 126.383,93.850 124.789,94.076 123.892 C 94.301 122.994,94.916 121.273,95.442 120.067 C 95.968 118.862,96.506 116.998,96.637 115.926 C 96.812 114.501,97.226 113.436,98.178 111.963 C 99.727 109.566,99.858 109.506,99.442 111.383 M113.975 247.075 C 113.266 247.929,114.339 249.481,119.044 254.413 C 121.374 256.855,124.818 260.599,126.696 262.732 C 131.957 268.705,136.015 272.392,138.954 273.868 C 139.789 274.287,142.142 275.876,144.182 277.398 C 150.210 281.895,153.269 283.936,155.537 284.975 C 156.712 285.512,158.868 286.638,160.328 287.476 C 164.656 289.959,172.904 293.434,175.717 293.959 C 177.196 294.235,179.227 294.939,180.607 295.654 C 184.207 297.518,193.527 300.506,196.792 300.843 C 198.309 300.999,200.524 301.469,201.714 301.887 C 203.558 302.533,204.654 302.655,209.106 302.708 C 213.579 302.762,214.592 302.875,216.119 303.494 C 220.737 305.365,236.088 305.712,236.088 303.945 C 236.088 302.872,234.384 301.855,232.584 301.855 C 231.567 301.855,230.308 301.685,229.786 301.478 C 229.264 301.271,227.546 300.973,225.970 300.818 C 223.989 300.622,222.008 300.123,219.562 299.205 C 217.614 298.474,215.337 297.775,214.503 297.650 C 202.976 295.933,197.721 294.147,187.690 288.539 C 185.835 287.502,183.482 286.414,182.462 286.121 C 181.442 285.829,179.848 285.017,178.921 284.317 C 176.964 282.841,175.412 282.027,171.886 280.626 C 167.701 278.964,161.289 275.720,157.227 273.210 C 154.343 271.428,152.899 270.752,151.325 270.446 C 149.095 270.013,147.483 268.763,146.338 266.578 C 146.040 266.009,144.257 264.363,142.375 262.921 C 140.494 261.479,138.954 260.198,138.954 260.076 C 138.954 259.062,135.018 256.050,131.172 254.121 C 128.839 252.951,125.424 251.122,123.583 250.058 C 117.652 246.629,115.023 245.812,113.975 247.075 M346.126 248.223 C 345.526 248.589,344.160 249.112,343.091 249.386 C 335.298 251.384,335.580 251.229,333.602 254.607 C 329.774 261.148,330.088 260.758,320.742 270.583 C 317.968 273.500,315.072 275.885,314.306 275.885 C 314.178 275.885,314.013 274.830,313.940 273.541 C 313.689 269.086,312.445 268.606,302.530 269.139 C 288.531 269.892,284.296 270.456,280.028 272.137 C 279.141 272.487,275.193 273.781,271.254 275.014 C 263.253 277.519,260.673 278.471,251.433 282.329 C 239.358 287.371,231.771 292.782,231.715 296.391 C 231.653 300.434,237.241 301.637,249.410 300.200 C 263.342 298.556,285.623 291.745,300.151 284.689 C 303.539 283.043,304.614 282.937,305.186 284.191 C 306.251 286.529,314.318 282.826,321.048 276.909 C 322.456 275.671,324.699 273.867,326.032 272.900 C 327.364 271.933,329.071 270.406,329.824 269.506 C 330.578 268.606,332.259 267.237,333.560 266.464 C 337.580 264.076,347.775 253.131,349.494 249.359 C 350.262 247.673,348.180 246.971,346.126 248.223 M341.653 254.010 C 341.653 254.988,334.506 262.105,334.015 261.615 C 333.642 261.241,334.207 259.870,335.150 258.864 C 335.666 258.313,336.341 257.300,336.650 256.613 C 337.271 255.232,338.407 254.346,340.059 253.953 C 341.613 253.584,341.653 253.585,341.653 254.010 M126.085 255.238 C 127.968 255.632,133.703 259.259,135.435 261.150 C 136.487 262.298,138.721 264.300,140.400 265.599 C 142.944 267.565,143.535 268.203,143.938 269.417 C 144.704 271.720,146.122 272.560,151.939 274.158 C 152.681 274.362,154.806 275.512,156.661 276.714 C 160.180 278.994,164.442 281.181,169.309 283.205 C 173.920 285.123,175.477 286.010,176.678 287.406 C 178.128 289.091,179.358 289.713,181.237 289.713 C 182.589 289.713,185.716 290.743,186.165 291.337 C 186.262 291.464,187.289 292.014,188.449 292.558 C 189.608 293.102,190.556 293.680,190.556 293.842 C 190.556 294.005,190.708 294.044,190.894 293.929 C 191.079 293.815,191.231 293.881,191.231 294.078 C 191.231 294.274,191.524 294.435,191.881 294.435 C 192.239 294.435,192.752 294.656,193.022 294.925 C 193.291 295.194,193.606 295.321,193.720 295.206 C 193.835 295.091,193.929 295.183,193.929 295.411 C 193.929 295.638,194.081 295.730,194.266 295.616 C 194.452 295.501,194.604 295.543,194.604 295.708 C 194.604 295.874,194.798 296.009,195.036 296.009 C 195.273 296.009,195.914 296.300,196.460 296.655 L 197.452 297.302 196.539 297.408 C 195.290 297.553,185.071 294.243,183.163 293.075 C 181.503 292.059,178.142 290.908,175.766 290.543 C 173.257 290.157,165.315 286.620,160.746 283.854 C 159.654 283.193,158.212 282.477,157.542 282.263 C 155.741 281.687,146.662 275.530,144.182 273.202 C 143.440 272.506,141.806 271.465,140.551 270.890 C 137.285 269.394,132.568 264.763,125.267 255.886 C 124.993 255.553,124.868 255.120,124.990 254.923 C 125.111 254.726,125.306 254.695,125.422 254.854 C 125.538 255.013,125.836 255.186,126.085 255.238 M309.883 272.464 C 310.654 272.954,308.396 276.223,307.287 276.223 C 307.122 276.223,306.899 276.450,306.792 276.728 C 306.685 277.007,306.365 277.234,306.081 277.234 C 305.797 277.234,305.565 277.362,305.565 277.519 C 305.565 277.675,304.998 278.092,304.305 278.446 C 303.613 278.800,302.835 279.287,302.577 279.529 C 302.057 280.016,292.798 284.643,292.044 284.792 C 291.782 284.844,290.525 285.368,289.249 285.956 C 286.541 287.205,277.047 290.624,275.658 290.851 C 275.134 290.937,274.667 291.038,274.621 291.077 C 274.574 291.115,274.422 291.178,274.283 291.217 C 274.144 291.256,273.637 291.452,273.156 291.652 C 272.676 291.853,271.765 292.112,271.133 292.227 C 269.552 292.517,269.357 292.569,268.971 292.808 C 268.558 293.065,266.053 293.747,264.819 293.939 C 263.343 294.168,262.919 294.274,262.558 294.500 C 262.201 294.724,258.917 295.361,257.152 295.549 C 256.587 295.610,255.980 295.743,255.803 295.846 C 253.660 297.088,236.088 297.868,236.088 296.721 C 236.088 296.555,235.936 296.513,235.750 296.627 C 235.083 297.040,235.430 295.811,236.117 295.330 C 236.504 295.059,237.853 293.836,239.114 292.612 C 240.376 291.389,241.577 290.388,241.783 290.388 C 241.990 290.388,242.159 290.266,242.159 290.118 C 242.159 289.815,245.221 288.206,245.616 288.303 C 245.755 288.336,245.868 288.212,245.868 288.027 C 245.868 287.841,245.982 287.721,246.121 287.759 C 246.549 287.877,249.884 286.653,253.443 285.073 C 259.858 282.225,267.665 279.417,275.717 277.062 C 277.201 276.628,278.870 276.034,279.427 275.744 C 279.983 275.453,280.695 275.214,281.009 275.213 C 281.322 275.212,281.674 275.057,281.791 274.868 C 281.907 274.679,282.134 274.606,282.293 274.705 C 282.453 274.804,282.671 274.744,282.777 274.572 C 282.883 274.400,284.070 274.082,285.414 273.865 C 286.759 273.648,288.238 273.389,288.702 273.289 C 289.640 273.087,291.976 272.935,300.169 272.543 C 308.128 272.162,309.390 272.151,309.883 272.464 " stroke="none" fill="#2aace3" fill-rule="evenodd"></path><path id="path2" d="M221.754 19.211 C 219.157 19.353,216.501 19.641,215.852 19.853 C 215.202 20.065,213.133 20.384,211.252 20.562 C 209.372 20.740,206.640 21.176,205.181 21.531 C 203.723 21.885,201.771 22.326,200.843 22.509 C 189.666 24.722,167.265 33.064,161.441 37.183 C 160.916 37.554,159.555 38.309,158.416 38.861 C 155.498 40.274,146.712 46.202,146.712 46.756 C 146.712 48.861,152.558 46.033,156.450 42.046 C 159.696 38.721,160.334 38.302,162.677 37.961 C 163.575 37.831,165.445 37.199,166.833 36.558 C 173.458 33.498,176.391 34.025,176.391 38.274 C 176.391 43.071,178.718 43.534,197.976 42.571 C 202.197 42.360,205.958 42.002,206.976 41.714 C 207.937 41.442,209.834 41.114,211.191 40.985 C 212.549 40.856,214.421 40.536,215.352 40.273 C 216.282 40.010,218.786 39.511,220.916 39.163 C 223.046 38.815,225.700 38.152,226.813 37.691 C 227.926 37.229,230.582 36.283,232.715 35.587 C 239.042 33.525,241.100 32.444,242.362 30.517 C 243.078 29.424,242.068 28.133,240.225 27.788 C 236.974 27.178,235.881 23.750,238.405 22.080 C 239.936 21.067,245.666 20.414,248.273 20.955 C 249.084 21.124,250.354 21.336,251.096 21.426 L 252.445 21.589 251.433 21.097 C 250.877 20.826,250.189 20.597,249.904 20.589 C 249.619 20.580,248.543 20.277,247.513 19.915 C 245.333 19.149,230.405 18.741,221.754 19.211 M217.596 22.818 C 218.402 23.548,218.418 25.571,217.622 26.175 C 215.852 27.519,213.984 25.315,215.200 23.316 C 215.915 22.139,216.672 21.982,217.596 22.818 M267.116 23.891 C 267.116 24.287,269.680 25.098,272.120 25.476 C 272.925 25.600,274.974 26.260,276.673 26.942 C 278.373 27.624,281.206 28.610,282.968 29.132 C 284.730 29.654,288.087 30.674,290.427 31.398 C 295.792 33.059,296.964 33.126,294.604 31.640 C 292.192 30.122,283.871 27.231,274.368 24.611 C 271.186 23.734,267.116 23.330,267.116 23.891 M299.325 34.226 C 299.882 34.709,302.083 35.945,304.216 36.972 C 306.349 37.998,310.067 39.951,312.479 41.310 C 320.336 45.737,323.923 47.777,325.248 48.572 C 327.857 50.135,325.875 48.157,322.145 45.476 C 314.152 39.729,303.182 33.802,299.988 33.504 L 298.314 33.348 299.325 34.226 M132.158 58.778 C 127.438 63.128,124.298 66.594,124.615 67.107 C 125.000 67.731,126.491 67.471,127.250 66.647 C 129.139 64.598,130.518 62.735,131.164 61.360 C 132.008 59.565,133.030 58.462,134.878 57.353 C 136.127 56.603,136.907 55.513,136.492 55.098 C 136.402 55.008,134.452 56.664,132.158 58.778 M11.889 55.873 C 11.169 56.163,11.281 320.598,12.001 320.875 C 13.410 321.415,15.052 321.078,16.041 320.045 L 17.032 319.011 17.118 189.782 C 17.211 49.277,17.330 58.877,15.469 56.511 C 14.810 55.673,13.127 55.373,11.889 55.873 M116.627 76.138 C 113.063 79.947,107.622 88.671,105.914 93.318 C 105.381 94.767,104.478 97.091,103.907 98.482 C 101.031 105.489,102.503 104.365,106.386 96.589 C 108.153 93.051,109.795 90.245,110.629 89.338 C 111.377 88.524,112.529 86.720,113.189 85.329 C 113.849 83.938,114.739 82.420,115.166 81.956 C 116.216 80.817,116.874 79.445,117.476 77.141 C 118.041 74.977,117.886 74.794,116.627 76.138 M98.178 111.963 C 97.226 113.436,96.812 114.501,96.637 115.926 C 96.506 116.998,95.968 118.862,95.442 120.067 C 94.916 121.273,94.301 122.994,94.076 123.892 C 93.850 124.789,93.030 126.383,92.254 127.433 C 89.868 130.659,89.017 134.616,90.659 134.849 C 91.837 135.016,92.350 134.373,93.138 131.743 C 93.534 130.423,94.231 128.595,94.687 127.683 C 95.143 126.770,95.720 124.764,95.970 123.226 C 96.219 121.687,96.576 120.142,96.763 119.791 C 97.557 118.308,99.983 109.949,99.620 109.949 C 99.542 109.949,98.894 110.856,98.178 111.963 M340.059 253.953 C 338.407 254.346,337.271 255.232,336.650 256.613 C 336.341 257.300,335.666 258.313,335.150 258.864 C 334.207 259.870,333.642 261.241,334.015 261.615 C 334.506 262.105,341.653 254.988,341.653 254.010 C 341.653 253.585,341.613 253.584,340.059 253.953 M124.990 254.923 C 124.868 255.120,124.993 255.553,125.267 255.886 C 132.568 264.763,137.285 269.394,140.551 270.890 C 141.806 271.465,143.440 272.506,144.182 273.202 C 146.662 275.530,155.741 281.687,157.542 282.263 C 158.212 282.477,159.654 283.193,160.746 283.854 C 165.315 286.620,173.257 290.157,175.766 290.543 C 178.142 290.908,181.503 292.059,183.163 293.075 C 185.071 294.243,195.290 297.553,196.539 297.408 L 197.452 297.302 196.460 296.655 C 195.914 296.300,195.273 296.009,195.036 296.009 C 194.798 296.009,194.604 295.874,194.604 295.708 C 194.604 295.543,194.452 295.501,194.266 295.616 C 194.081 295.730,193.929 295.638,193.929 295.411 C 193.929 295.183,193.835 295.091,193.720 295.206 C 193.606 295.321,193.291 295.194,193.022 294.925 C 192.752 294.656,192.239 294.435,191.881 294.435 C 191.524 294.435,191.231 294.274,191.231 294.078 C 191.231 293.881,191.079 293.815,190.894 293.929 C 190.708 294.044,190.556 294.005,190.556 293.842 C 190.556 293.680,189.608 293.102,188.449 292.558 C 187.289 292.014,186.262 291.464,186.165 291.337 C 185.716 290.743,182.589 289.713,181.237 289.713 C 179.358 289.713,178.128 289.091,176.678 287.406 C 175.477 286.010,173.920 285.123,169.309 283.205 C 164.442 281.181,160.180 278.994,156.661 276.714 C 154.806 275.512,152.681 274.362,151.939 274.158 C 146.122 272.560,144.704 271.720,143.938 269.417 C 143.535 268.203,142.944 267.565,140.400 265.599 C 138.721 264.300,136.487 262.298,135.435 261.150 C 133.703 259.259,127.968 255.632,126.085 255.238 C 125.836 255.186,125.538 255.013,125.422 254.854 C 125.306 254.695,125.111 254.726,124.990 254.923 M300.169 272.543 C 291.976 272.935,289.640 273.087,288.702 273.289 C 288.238 273.389,286.759 273.648,285.414 273.865 C 284.070 274.082,282.883 274.400,282.777 274.572 C 282.671 274.744,282.453 274.804,282.293 274.705 C 282.134 274.606,281.907 274.679,281.791 274.868 C 281.674 275.057,281.322 275.212,281.009 275.213 C 280.695 275.214,279.983 275.453,279.427 275.744 C 278.870 276.034,277.201 276.628,275.717 277.062 C 267.665 279.417,259.858 282.225,253.443 285.073 C 249.884 286.653,246.549 287.877,246.121 287.759 C 245.982 287.721,245.868 287.841,245.868 288.027 C 245.868 288.212,245.755 288.336,245.616 288.303 C 245.221 288.206,242.159 289.815,242.159 290.118 C 242.159 290.266,241.990 290.388,241.783 290.388 C 241.577 290.388,240.376 291.389,239.114 292.612 C 237.853 293.836,236.504 295.059,236.117 295.330 C 235.430 295.811,235.083 297.040,235.750 296.627 C 235.936 296.513,236.088 296.555,236.088 296.721 C 236.088 297.868,253.660 297.088,255.803 295.846 C 255.980 295.743,256.587 295.610,257.152 295.549 C 258.917 295.361,262.201 294.724,262.558 294.500 C 262.919 294.274,263.343 294.168,264.819 293.939 C 266.053 293.747,268.558 293.065,268.971 292.808 C 269.357 292.569,269.552 292.517,271.133 292.227 C 271.765 292.112,272.676 291.853,273.156 291.652 C 273.637 291.452,274.144 291.256,274.283 291.217 C 274.422 291.178,274.574 291.115,274.621 291.077 C 274.667 291.038,275.134 290.937,275.658 290.851 C 277.047 290.624,286.541 287.205,289.249 285.956 C 290.525 285.368,291.782 284.844,292.044 284.792 C 292.798 284.643,302.057 280.016,302.577 279.529 C 302.835 279.287,303.613 278.800,304.305 278.446 C 304.998 278.092,305.565 277.675,305.565 277.519 C 305.565 277.362,305.797 277.234,306.081 277.234 C 306.365 277.234,306.685 277.007,306.792 276.728 C 306.899 276.450,307.122 276.223,307.287 276.223 C 307.718 276.223,310.098 273.784,310.220 273.218 C 310.459 272.106,309.977 272.073,300.169 272.543 " stroke="none" fill="#25aae1" fill-rule="evenodd"></path><path id="path3" d="M222.428 14.521 C 194.003 16.527,164.254 27.371,142.556 43.635 C 124.936 56.843,106.273 78.597,101.513 91.475 C 96.819 104.177,96.136 105.823,94.039 109.479 C 92.846 111.561,92.265 113.010,92.037 114.469 C 91.861 115.601,91.358 117.232,90.918 118.094 C 90.478 118.956,89.863 120.541,89.550 121.616 C 89.238 122.690,88.561 124.185,88.046 124.938 C 85.399 128.809,83.789 136.462,85.245 138.259 C 86.913 140.318,93.034 140.102,95.314 137.903 C 96.765 136.504,99.024 130.964,99.906 126.644 C 101.750 117.613,110.356 97.134,114.090 92.892 C 114.803 92.081,115.962 90.389,116.664 89.132 C 118.300 86.203,121.505 81.046,122.433 79.850 C 123.355 78.662,124.097 79.004,124.949 81.008 C 126.847 85.473,127.327 86.319,128.834 87.858 C 131.739 90.825,131.736 91.142,128.750 97.452 C 119.888 116.174,115.587 135.917,119.937 137.899 C 124.087 139.790,126.138 137.885,127.164 131.185 C 129.220 117.775,131.427 109.284,134.699 102.194 C 137.535 96.051,137.316 96.111,143.508 99.767 C 144.882 100.579,146.855 101.391,148.229 101.711 C 149.528 102.013,152.032 102.618,153.794 103.056 C 155.556 103.494,157.781 103.926,158.739 104.015 C 159.788 104.112,161.404 104.643,162.807 105.349 C 164.087 105.994,166.461 106.836,168.083 107.222 C 173.140 108.423,173.199 108.521,173.505 116.358 C 173.921 126.980,175.516 135.934,177.274 137.521 C 178.509 138.635,182.031 138.618,183.341 137.491 L 184.258 136.703 183.881 133.191 C 183.355 128.290,182.593 122.409,181.767 116.863 C 180.671 109.507,180.827 109.339,189.123 108.895 C 197.328 108.456,201.728 107.791,204.263 106.604 C 206.939 105.352,209.406 105.039,212.393 105.573 C 214.550 105.958,214.995 105.924,218.407 105.113 C 220.433 104.632,223.912 104.088,226.138 103.904 C 231.567 103.458,238.162 102.092,242.488 100.518 C 244.440 99.807,247.327 98.969,248.904 98.655 C 250.481 98.340,252.556 97.922,253.515 97.725 C 256.847 97.041,257.882 98.096,256.946 101.222 C 256.589 102.415,256.645 102.697,257.623 104.634 C 258.802 106.969,259.465 109.139,260.203 113.072 C 260.760 116.039,261.284 117.218,262.661 118.598 C 264.119 120.061,264.660 121.088,264.912 122.878 C 265.039 123.775,265.370 125.141,265.647 125.913 C 265.925 126.686,266.302 128.225,266.485 129.333 C 266.896 131.819,270.332 137.319,271.874 137.958 C 273.487 138.625,278.867 138.257,279.478 137.437 C 280.316 136.310,279.018 131.465,276.028 124.562 C 275.211 122.675,274.237 119.820,273.863 118.218 C 273.117 115.020,272.680 114.026,270.972 111.648 C 270.291 110.701,269.677 109.315,269.458 108.231 C 268.392 102.953,267.998 101.724,266.279 98.314 C 263.439 92.677,263.756 91.660,269.226 88.856 C 274.022 86.397,278.346 83.221,282.968 78.761 C 285.287 76.524,287.755 74.317,288.452 73.856 C 289.150 73.396,290.336 72.146,291.087 71.080 C 293.168 68.127,294.592 67.699,296.311 69.508 C 296.856 70.081,297.825 70.820,298.465 71.151 C 299.105 71.482,300.249 72.565,301.007 73.557 C 302.345 75.308,302.675 75.500,305.288 76.038 C 306.835 76.356,307.214 77.026,307.157 79.345 C 307.097 81.797,307.585 82.744,309.646 84.172 C 310.408 84.700,311.502 85.969,312.154 87.083 C 312.791 88.168,313.698 89.470,314.171 89.975 C 314.643 90.480,315.272 91.728,315.568 92.749 C 316.114 94.631,316.858 95.514,321.113 99.330 C 322.137 100.248,322.883 101.334,323.431 102.703 C 323.876 103.813,324.959 105.986,325.839 107.530 C 326.718 109.075,327.539 110.972,327.663 111.746 C 327.935 113.435,328.370 114.157,330.876 117.074 C 335.073 121.959,334.722 125.570,329.884 127.253 C 327.202 128.187,324.417 129.971,323.027 131.646 C 322.120 132.739,321.303 133.316,320.095 133.718 C 316.924 134.771,315.746 136.565,317.444 137.755 C 318.683 138.622,328.803 138.498,332.439 137.570 L 335.221 136.861 337.322 137.570 C 340.339 138.589,347.055 138.611,348.061 137.605 C 348.966 136.700,348.926 136.282,347.555 132.209 C 345.796 126.987,345.919 126.251,349.129 122.820 C 352.333 119.395,357.075 112.015,357.339 110.041 C 357.458 109.156,357.856 107.418,358.225 106.179 C 359.437 102.102,358.488 98.966,357.196 102.782 C 356.796 103.964,355.989 105.196,354.768 106.492 C 353.762 107.559,352.340 109.468,351.607 110.736 C 350.875 112.003,350.013 113.180,349.692 113.352 C 349.371 113.523,348.408 114.270,347.552 115.011 C 344.436 117.708,342.441 116.605,339.130 110.354 C 337.882 107.998,336.047 104.821,335.052 103.293 C 334.056 101.765,332.388 98.738,331.344 96.567 C 329.641 93.024,329.160 92.340,326.657 89.901 C 324.559 87.857,323.552 86.557,322.596 84.654 C 319.966 79.422,316.608 75.570,308.614 68.621 C 299.546 60.739,298.566 59.202,300.198 55.424 C 302.282 50.598,301.408 42.944,299.225 46.914 C 296.708 51.492,294.577 54.132,293.311 54.237 C 291.885 54.356,286.914 51.901,282.339 48.818 C 278.598 46.297,270.938 42.724,265.261 40.851 C 262.479 39.933,258.761 38.660,256.998 38.023 C 255.236 37.386,252.656 36.600,251.265 36.278 C 245.977 35.050,245.993 35.066,247.218 32.209 C 247.640 31.224,247.892 29.886,247.892 28.631 C 247.892 26.841,247.976 26.596,248.681 26.328 C 250.053 25.806,258.695 26.520,260.759 27.326 C 261.751 27.713,265.067 28.694,268.128 29.505 C 271.189 30.317,275.742 31.679,278.246 32.533 C 280.750 33.387,284.241 34.475,286.003 34.951 C 291.436 36.420,295.826 38.068,298.820 39.764 C 300.396 40.657,302.066 41.505,302.530 41.648 C 308.144 43.385,324.582 53.597,330.862 59.251 C 332.753 60.953,335.309 62.884,336.543 63.540 C 338.348 64.501,339.543 65.566,342.664 68.995 C 344.798 71.338,347.074 73.680,347.723 74.198 C 348.373 74.716,349.571 76.257,350.387 77.621 C 354.221 84.033,357.473 89.931,359.431 94.025 C 360.610 96.489,362.076 99.296,362.690 100.264 C 366.030 105.529,369.997 113.279,370.334 115.198 C 370.528 116.299,371.273 118.642,371.991 120.405 C 373.384 123.826,374.646 128.234,375.564 132.884 C 376.682 138.548,378.100 140.127,381.280 139.249 C 384.250 138.429,384.097 135.298,380.325 119.730 C 376.895 105.576,374.768 100.678,365.460 85.497 C 349.893 60.110,319.914 33.604,301.616 29.050 C 300.107 28.674,297.960 27.906,296.846 27.344 C 289.876 23.825,273.607 19.048,266.813 18.526 C 260.430 18.034,255.702 17.293,251.939 16.194 C 246.311 14.550,232.838 13.786,222.428 14.521 M244.182 16.168 C 246.549 16.357,249.127 16.856,251.956 17.673 C 254.284 18.346,257.547 19.037,259.208 19.208 C 265.860 19.893,269.073 20.268,271.164 20.601 C 276.753 21.493,291.774 26.307,296.691 28.783 C 297.971 29.428,299.984 30.146,301.163 30.378 C 303.603 30.858,311.120 34.465,316.737 37.851 C 337.784 50.539,358.613 73.885,372.187 100.000 C 375.404 106.190,379.555 120.294,381.318 131.029 C 381.623 132.884,381.947 134.819,382.037 135.329 C 382.272 136.654,381.339 137.943,380.146 137.943 C 378.407 137.943,377.708 136.611,376.689 131.366 C 375.901 127.307,374.658 123.097,373.302 119.899 C 372.752 118.600,372.092 116.444,371.836 115.108 C 371.444 113.061,370.706 111.484,367.161 105.119 C 364.845 100.962,362.120 95.908,361.105 93.890 C 359.457 90.615,357.420 86.932,352.344 78.056 C 351.247 76.137,349.683 74.206,347.032 71.499 C 344.965 69.388,342.369 66.642,341.263 65.398 C 340.157 64.153,338.767 62.940,338.175 62.703 C 336.175 61.902,333.741 60.142,330.566 57.202 C 321.588 48.889,298.664 36.719,285.744 33.407 C 284.310 33.039,280.708 31.894,277.740 30.862 C 274.772 29.830,271.054 28.700,269.477 28.350 C 267.901 28.000,265.093 27.160,263.238 26.482 C 260.001 25.300,259.598 25.236,253.206 24.893 C 244.970 24.451,244.861 24.498,246.099 27.983 C 246.835 30.055,246.397 31.217,243.989 33.585 C 240.265 37.246,226.331 41.876,212.536 44.036 C 210.804 44.307,208.756 44.676,207.982 44.856 C 207.209 45.036,203.921 45.342,200.675 45.535 C 197.428 45.728,193.103 46.054,191.062 46.259 C 181.422 47.229,174.768 45.260,172.490 40.766 C 171.461 38.734,170.430 38.610,167.004 40.104 C 165.767 40.644,164.140 41.249,163.389 41.449 C 162.032 41.809,160.956 42.614,157.633 45.754 C 154.707 48.520,151.129 50.320,148.016 50.594 C 146.570 50.721,145.115 51.030,144.784 51.280 C 143.026 52.609,141.736 54.065,140.136 56.528 C 139.026 58.234,137.770 59.684,136.791 60.387 C 135.906 61.022,134.652 62.417,133.912 63.589 C 130.425 69.110,127.853 71.224,124.786 71.090 C 122.678 70.998,122.091 71.574,122.091 73.734 C 122.091 75.726,119.855 81.280,117.910 84.118 C 117.031 85.400,115.873 87.319,115.336 88.383 C 114.800 89.446,113.720 91.053,112.937 91.954 C 112.115 92.901,110.595 95.514,109.337 98.145 C 108.140 100.649,106.511 103.836,105.717 105.228 C 104.923 106.619,103.790 109.275,103.199 111.130 C 102.609 112.985,101.455 116.476,100.635 118.887 C 99.816 121.298,98.990 124.238,98.800 125.420 C 98.610 126.602,98.171 128.124,97.825 128.803 C 97.479 129.482,96.934 130.943,96.616 132.051 C 95.200 136.967,94.023 138.119,90.443 138.091 C 86.223 138.058,85.827 137.542,86.578 133.048 C 87.181 129.444,87.495 128.568,89.046 126.168 C 89.772 125.045,90.618 123.251,90.926 122.181 C 91.234 121.111,91.840 119.532,92.273 118.672 C 92.705 117.811,93.213 116.155,93.400 114.990 C 93.643 113.483,94.221 112.040,95.408 109.978 C 97.194 106.876,98.469 104.152,99.139 102.007 C 103.680 87.471,111.320 75.416,125.293 60.739 C 154.925 29.616,200.154 12.660,244.182 16.168 M243.222 39.824 C 243.991 40.216,246.001 40.745,247.689 41.000 C 249.378 41.255,251.897 41.852,253.288 42.327 C 254.680 42.803,257.099 43.416,258.665 43.691 C 262.280 44.324,262.681 44.588,264.999 47.869 C 265.056 47.948,266.091 48.133,267.300 48.278 C 269.805 48.580,274.130 50.727,277.115 53.150 C 278.187 54.020,279.735 54.847,281.162 55.312 C 284.463 56.387,284.644 56.629,284.742 60.091 C 284.836 63.445,284.646 63.787,281.807 65.390 C 280.849 65.930,279.625 66.957,279.088 67.672 C 277.066 70.359,272.663 74.435,271.309 74.872 C 269.131 75.576,268.049 76.226,266.265 77.900 C 263.774 80.236,260.032 81.509,258.329 80.597 C 257.441 80.122,253.020 73.269,250.648 68.690 C 248.265 64.090,246.966 62.065,243.777 57.971 C 242.421 56.230,240.565 53.744,239.653 52.445 C 236.586 48.080,234.823 46.045,232.931 44.688 C 230.073 42.638,230.106 41.772,233.091 40.488 C 237.185 38.726,240.628 38.501,243.222 39.824 M170.963 41.528 C 171.332 41.923,172.055 43.053,172.571 44.038 L 173.509 45.830 172.697 46.695 C 172.251 47.170,171.040 48.033,170.007 48.612 C 160.646 53.861,149.815 64.226,142.186 75.235 C 136.638 83.240,136.350 83.508,134.217 82.624 C 131.946 81.684,128.171 76.385,128.165 74.131 C 128.162 73.034,128.527 72.476,131.179 69.516 C 132.839 67.664,134.504 65.545,134.880 64.808 C 135.256 64.071,136.479 62.673,137.596 61.700 C 138.722 60.721,140.367 58.782,141.284 57.353 C 143.761 53.492,145.250 52.277,147.505 52.277 C 150.708 52.277,155.951 49.499,159.861 45.731 C 161.488 44.164,162.582 43.425,164.081 42.885 C 165.194 42.484,166.712 41.862,167.454 41.503 C 169.227 40.646,170.148 40.653,170.963 41.528 M226.131 43.989 C 226.975 44.342,227.523 44.945,228.187 46.255 C 228.685 47.237,229.956 48.956,231.013 50.074 C 232.070 51.193,233.631 53.019,234.481 54.132 C 235.331 55.245,236.567 56.656,237.227 57.268 C 238.363 58.323,239.117 60.035,239.121 61.572 C 239.122 61.954,239.816 63.078,240.663 64.070 C 242.639 66.385,244.137 69.364,244.575 71.851 C 244.832 73.314,245.228 74.175,246.128 75.226 L 247.336 76.637 246.924 79.089 C 246.600 81.016,246.600 82.018,246.922 83.766 C 247.485 86.823,247.189 87.352,244.091 88.823 C 240.478 90.537,237.813 91.361,234.073 91.920 C 232.254 92.192,230.256 92.628,229.632 92.888 C 227.766 93.668,224.379 94.454,221.463 94.784 C 219.953 94.956,217.656 95.324,216.358 95.604 C 209.971 96.979,206.347 97.546,203.993 97.538 C 201.807 97.531,201.107 97.681,199.440 98.511 C 198.357 99.050,196.951 99.492,196.317 99.493 C 195.682 99.494,194.185 99.970,192.991 100.552 L 190.818 101.611 189.085 100.913 C 188.015 100.482,186.359 100.172,184.756 100.102 C 180.470 99.915,180.322 99.710,180.039 93.557 L 179.807 88.533 181.632 80.939 C 183.489 73.207,184.590 67.272,185.008 62.732 C 185.150 61.183,185.536 59.614,186.002 58.685 C 186.420 57.850,187.157 55.867,187.640 54.278 C 189.357 48.621,191.143 47.245,196.796 47.225 C 201.872 47.207,211.421 45.935,219.393 44.213 C 223.100 43.413,224.631 43.362,226.131 43.989 M182.057 49.646 C 182.699 50.288,182.534 51.234,181.242 54.300 C 178.830 60.027,177.723 63.655,177.208 67.517 C 176.928 69.615,176.401 73.229,176.037 75.548 C 175.674 77.867,175.223 81.813,175.036 84.317 C 173.958 98.772,173.864 99.089,170.751 98.713 C 165.664 98.098,162.698 97.417,160.201 96.289 C 158.721 95.621,156.485 94.859,155.231 94.596 C 147.989 93.077,141.963 90.765,141.267 89.237 C 140.797 88.204,141.589 85.401,142.943 83.305 C 144.561 80.802,168.422 56.653,170.503 55.414 C 171.498 54.822,173.420 53.492,174.773 52.459 C 178.651 49.500,181.003 48.592,182.057 49.646 M9.776 51.890 C 9.129 52.234,8.261 53.107,7.847 53.829 L 7.094 55.143 7.088 188.370 C 7.083 317.394,7.102 321.632,7.707 322.760 C 10.156 327.326,18.954 326.056,20.933 320.851 C 21.126 320.344,21.248 269.252,21.248 188.974 L 21.248 57.925 20.205 55.860 C 17.973 51.438,13.689 49.808,9.776 51.890 M16.702 53.238 C 17.340 53.627,18.162 54.726,18.895 56.170 L 20.067 58.481 20.160 187.503 C 20.259 325.551,20.327 320.082,18.479 322.005 C 15.619 324.982,10.456 325.027,8.936 322.087 C 8.020 320.317,8.192 55.878,9.110 54.373 C 10.236 52.526,14.491 51.890,16.702 53.238 M112.524 245.556 C 110.631 247.045,111.458 248.443,118.993 256.492 C 121.945 259.646,125.796 263.820,127.551 265.767 C 131.513 270.163,135.064 273.263,138.602 275.412 C 140.099 276.321,143.692 278.794,146.585 280.906 C 154.281 286.524,170.435 294.630,175.570 295.450 C 176.983 295.676,178.588 296.220,179.671 296.839 C 182.535 298.478,192.958 301.839,196.290 302.198 C 197.867 302.368,200.011 302.801,201.055 303.160 C 203.963 304.162,207.589 304.613,210.793 304.374 C 213.249 304.190,213.878 304.257,215.191 304.846 C 219.037 306.573,239.712 307.129,245.081 305.649 C 247.077 305.100,248.796 304.885,251.321 304.871 C 253.678 304.858,255.570 304.640,257.167 304.198 C 258.465 303.839,260.590 303.321,261.889 303.046 C 274.348 300.416,275.954 299.988,279.595 298.338 C 283.503 296.566,285.191 296.014,289.545 295.087 C 293.789 294.182,295.759 293.254,299.222 290.525 C 300.855 289.239,302.536 288.213,303.349 288.006 C 310.436 286.205,315.908 283.279,321.815 278.132 C 323.358 276.786,325.783 274.829,327.204 273.782 C 328.625 272.735,330.219 271.335,330.745 270.671 C 331.272 270.006,332.880 268.696,334.319 267.760 C 340.047 264.029,351.771 250.665,351.771 247.866 C 351.771 245.788,349.137 245.141,345.621 246.354 C 344.245 246.829,342.708 247.218,342.204 247.218 C 341.700 247.218,340.693 247.521,339.966 247.892 C 338.260 248.762,337.724 248.740,336.088 247.732 C 334.843 246.966,334.407 246.901,330.457 246.891 C 325.486 246.879,325.000 247.116,323.943 250.084 C 323.511 251.294,322.760 252.322,321.283 253.722 C 316.128 258.607,314.915 259.970,313.725 262.211 C 312.575 264.376,312.297 264.655,310.118 265.827 C 307.501 267.234,307.347 267.263,299.583 267.795 C 291.292 268.363,291.504 268.675,293.165 258.347 C 295.063 246.551,295.266 247.170,289.306 246.592 C 287.003 246.369,283.867 245.887,282.336 245.521 C 278.684 244.649,265.902 244.557,261.585 245.372 C 257.252 246.190,255.353 246.497,252.108 246.902 C 248.192 247.390,243.826 248.156,241.497 248.762 C 240.485 249.025,238.587 249.244,237.282 249.247 C 235.976 249.250,233.845 249.486,232.546 249.772 C 222.570 251.963,220.512 251.764,217.862 248.348 C 215.787 245.673,214.135 244.857,210.796 244.857 C 206.593 244.857,206.065 245.609,207.757 249.187 C 209.318 252.485,209.160 253.427,206.800 254.935 C 204.343 256.503,203.636 256.563,201.759 255.359 L 200.142 254.321 192.061 254.689 C 183.274 255.089,178.574 254.830,172.175 253.593 C 170.320 253.234,166.727 252.726,164.189 252.464 C 161.652 252.203,159.223 251.807,158.793 251.584 C 157.094 250.707,155.707 249.418,154.601 247.689 C 152.492 244.392,148.060 243.733,143.488 246.036 C 140.859 247.360,140.206 247.425,136.535 246.722 C 135.111 246.450,131.241 246.133,127.934 246.018 C 124.628 245.903,120.632 245.595,119.056 245.334 C 115.045 244.669,113.588 244.719,112.524 245.556 M118.456 247.333 C 119.435 247.767,121.742 248.994,123.583 250.058 C 125.424 251.122,128.839 252.951,131.172 254.121 C 135.018 256.050,138.954 259.062,138.954 260.076 C 138.954 260.198,140.494 261.479,142.375 262.921 C 144.257 264.363,146.040 266.009,146.338 266.578 C 147.483 268.763,149.095 270.013,151.325 270.446 C 152.899 270.752,154.343 271.428,157.227 273.210 C 161.289 275.720,167.701 278.964,171.886 280.626 C 175.412 282.027,176.964 282.841,178.921 284.317 C 179.848 285.017,181.442 285.829,182.462 286.121 C 183.482 286.414,185.835 287.502,187.690 288.539 C 197.721 294.147,202.976 295.933,214.503 297.650 C 215.337 297.775,217.614 298.474,219.562 299.205 C 222.008 300.123,223.989 300.622,225.970 300.818 C 227.546 300.973,229.264 301.271,229.786 301.478 C 230.308 301.685,231.567 301.855,232.584 301.855 C 234.384 301.855,236.088 302.872,236.088 303.945 C 236.088 305.712,220.737 305.365,216.119 303.494 C 214.592 302.875,213.579 302.762,209.106 302.708 C 204.654 302.655,203.558 302.533,201.714 301.887 C 200.524 301.469,198.309 300.999,196.792 300.843 C 193.527 300.506,184.207 297.518,180.607 295.654 C 179.227 294.939,177.196 294.235,175.717 293.959 C 172.904 293.434,164.656 289.959,160.328 287.476 C 158.868 286.638,156.712 285.512,155.537 284.975 C 153.269 283.936,150.210 281.895,144.182 277.398 C 142.142 275.876,139.789 274.287,138.954 273.868 C 136.015 272.392,131.957 268.705,126.696 262.732 C 124.818 260.599,121.374 256.855,119.044 254.413 C 112.318 247.364,112.081 244.504,118.456 247.333 M349.418 248.071 C 350.745 249.669,339.105 263.170,333.560 266.464 C 332.259 267.237,330.578 268.606,329.824 269.506 C 329.071 270.406,327.364 271.933,326.032 272.900 C 324.699 273.867,322.456 275.671,321.048 276.909 C 314.318 282.826,306.251 286.529,305.186 284.191 C 304.614 282.937,303.539 283.043,300.151 284.689 C 280.856 294.060,255.971 300.659,240.047 300.627 C 233.821 300.615,233.432 300.489,232.177 298.077 C 230.085 294.056,237.112 288.309,251.433 282.329 C 260.673 278.471,263.253 277.519,271.254 275.014 C 275.193 273.781,279.141 272.487,280.028 272.137 C 284.296 270.456,288.531 269.892,302.530 269.139 C 312.445 268.606,313.689 269.086,313.940 273.541 C 314.013 274.830,314.178 275.885,314.306 275.885 C 315.072 275.885,317.968 273.500,320.742 270.583 C 330.088 260.758,329.774 261.148,333.602 254.607 C 335.580 251.229,335.298 251.384,343.091 249.386 C 344.160 249.112,345.526 248.589,346.126 248.223 C 347.432 247.426,348.830 247.362,349.418 248.071 M282.089 252.698 C 282.356 253.116,282.766 254.616,282.999 256.032 L 283.424 258.608 282.224 261.766 C 281.564 263.503,280.772 265.803,280.465 266.877 C 279.363 270.726,278.460 271.316,269.309 274.166 C 263.153 276.084,256.729 278.472,251.650 280.732 C 247.404 282.622,245.795 283.079,244.440 282.782 C 243.315 282.535,237.361 277.137,235.563 274.734 C 234.996 273.976,233.456 271.914,232.141 270.152 C 227.222 263.561,226.488 260.302,229.566 258.728 C 230.478 258.262,236.813 258.207,238.597 258.650 C 240.030 259.006,241.298 258.836,245.700 257.700 C 248.092 257.082,251.483 256.551,260.877 255.325 C 264.543 254.846,270.956 253.685,275.042 252.759 C 279.616 251.722,281.454 251.707,282.089 252.698 M147.043 257.518 C 151.609 258.625,152.748 259.330,155.998 263.063 C 157.476 264.761,160.359 267.644,162.406 269.471 C 166.506 273.130,169.309 276.003,169.309 276.545 C 169.309 277.663,164.073 275.757,159.970 273.146 C 155.955 270.592,153.281 269.252,151.602 268.954 C 149.709 268.617,149.238 268.313,148.374 266.868 C 147.287 265.047,146.153 263.893,143.800 262.210 C 137.433 257.655,138.892 255.544,147.043 257.518 M176.728 262.718 C 178.862 262.902,184.705 263.149,189.713 263.268 C 198.042 263.465,201.739 263.338,211.298 262.527 C 214.432 262.261,215.291 262.855,218.425 267.462 C 220.140 269.985,222.203 272.350,225.626 275.718 C 228.265 278.314,231.150 281.501,232.038 282.799 C 232.927 284.098,234.125 285.606,234.702 286.151 C 237.091 288.408,234.285 292.074,230.170 292.074 C 223.912 292.074,208.677 288.083,204.359 285.312 C 203.508 284.767,201.989 284.037,200.983 283.691 C 199.977 283.344,198.229 282.595,197.100 282.024 C 195.970 281.454,193.780 280.673,192.234 280.288 C 188.866 279.449,187.055 278.449,185.577 276.608 C 184.196 274.889,180.794 272.443,178.203 271.305 C 177.114 270.826,175.515 269.842,174.650 269.118 C 173.786 268.394,171.893 267.261,170.445 266.601 C 167.398 265.212,166.610 264.594,166.610 263.590 C 166.610 261.857,166.678 261.851,176.728 262.718 " stroke="none" fill="#a5a7a9" fill-rule="evenodd"></path></g></svg>